<mxfile host="Electron" agent="Mozilla/5.0 (Windows NT 10.0; Win64; x64) AppleWebKit/537.36 (KHTML, like Gecko) draw.io/24.7.8 Chrome/128.0.6613.36 Electron/32.0.1 Safari/537.36" version="24.7.8">
  <diagram name="Страница — 1" id="lxiVYJkcwfHjow6NeGSs">
    <mxGraphModel dx="819" dy="478" grid="0" gridSize="10" guides="1" tooltips="1" connect="1" arrows="1" fold="1" page="1" pageScale="1" pageWidth="3300" pageHeight="4681" background="#ffffff" math="0" shadow="0">
      <root>
        <mxCell id="0" />
        <mxCell id="1" parent="0" />
        <mxCell id="o3dH4B3-5PKVPGaBKZ95-18" value="" style="rounded=1;whiteSpace=wrap;html=1;fillColor=#e51400;fontColor=#ffffff;strokeColor=#B20000;fontStyle=1;fontSize=15;" vertex="1" parent="1">
          <mxGeometry x="760" y="440" width="130" height="100" as="geometry" />
        </mxCell>
        <mxCell id="o3dH4B3-5PKVPGaBKZ95-3" value="" style="edgeStyle=orthogonalEdgeStyle;rounded=0;orthogonalLoop=1;jettySize=auto;html=1;fillColor=#d80073;strokeColor=#A50040;strokeWidth=3;" edge="1" parent="1" source="o3dH4B3-5PKVPGaBKZ95-1" target="o3dH4B3-5PKVPGaBKZ95-2">
          <mxGeometry relative="1" as="geometry" />
        </mxCell>
        <mxCell id="o3dH4B3-5PKVPGaBKZ95-1" value="USB-C" style="rounded=1;whiteSpace=wrap;html=1;fillColor=#f0a30a;fontColor=#000000;strokeColor=#BD7000;fontStyle=1;fontSize=25;" vertex="1" parent="1">
          <mxGeometry x="510" y="470" width="100" height="100" as="geometry" />
        </mxCell>
        <mxCell id="o3dH4B3-5PKVPGaBKZ95-2" value="USB PD&lt;div style=&quot;font-size: 25px;&quot;&gt;Trigger&lt;/div&gt;" style="rounded=1;whiteSpace=wrap;html=1;fillColor=#e3c800;fontColor=#000000;strokeColor=#B09500;fontStyle=1;fontSize=25;" vertex="1" parent="1">
          <mxGeometry x="650" y="470" width="100" height="100" as="geometry" />
        </mxCell>
        <mxCell id="o3dH4B3-5PKVPGaBKZ95-5" value="Charger IC" style="rounded=1;whiteSpace=wrap;html=1;fillColor=#e3c800;fontColor=#000000;strokeColor=#B09500;fontStyle=1;fontSize=25;" vertex="1" parent="1">
          <mxGeometry x="650" y="360" width="100" height="100" as="geometry" />
        </mxCell>
        <mxCell id="o3dH4B3-5PKVPGaBKZ95-6" value="" style="edgeStyle=orthogonalEdgeStyle;rounded=0;orthogonalLoop=1;jettySize=auto;html=1;fillColor=#d80073;strokeColor=#A50040;strokeWidth=3;exitX=0.5;exitY=0;exitDx=0;exitDy=0;entryX=0;entryY=0.5;entryDx=0;entryDy=0;" edge="1" parent="1" source="o3dH4B3-5PKVPGaBKZ95-1" target="o3dH4B3-5PKVPGaBKZ95-5">
          <mxGeometry relative="1" as="geometry">
            <mxPoint x="600" y="419.74" as="sourcePoint" />
            <mxPoint x="640" y="419.74" as="targetPoint" />
          </mxGeometry>
        </mxCell>
        <mxCell id="o3dH4B3-5PKVPGaBKZ95-7" value="15V&lt;div&gt;5A&lt;/div&gt;" style="edgeLabel;html=1;align=center;verticalAlign=middle;resizable=0;points=[];labelBackgroundColor=none;fontSize=15;fontColor=#000000;fontStyle=1" vertex="1" connectable="0" parent="o3dH4B3-5PKVPGaBKZ95-6">
          <mxGeometry x="0.0541" y="-1" relative="1" as="geometry">
            <mxPoint x="21" y="-1" as="offset" />
          </mxGeometry>
        </mxCell>
        <mxCell id="o3dH4B3-5PKVPGaBKZ95-8" value="DW01A" style="rounded=1;whiteSpace=wrap;html=1;fillColor=#a0522d;fontColor=#ffffff;strokeColor=#6D1F00;fontStyle=1;fontSize=15;" vertex="1" parent="1">
          <mxGeometry x="770" y="500" width="90" height="40" as="geometry" />
        </mxCell>
        <mxCell id="o3dH4B3-5PKVPGaBKZ95-9" value="18650&lt;div&gt;Battery&lt;/div&gt;" style="rounded=1;whiteSpace=wrap;html=1;fillColor=#a0522d;fontColor=#ffffff;strokeColor=#6D1F00;fontStyle=1;fontSize=15;" vertex="1" parent="1">
          <mxGeometry x="770" y="440" width="90" height="40" as="geometry" />
        </mxCell>
        <mxCell id="o3dH4B3-5PKVPGaBKZ95-13" value="" style="edgeStyle=orthogonalEdgeStyle;rounded=0;orthogonalLoop=1;jettySize=auto;html=1;fillColor=#d80073;strokeColor=#A50040;strokeWidth=3;exitX=0.5;exitY=1;exitDx=0;exitDy=0;entryX=0.5;entryY=0;entryDx=0;entryDy=0;" edge="1" parent="1" source="o3dH4B3-5PKVPGaBKZ95-9" target="o3dH4B3-5PKVPGaBKZ95-8">
          <mxGeometry relative="1" as="geometry">
            <mxPoint x="740" y="490" as="sourcePoint" />
            <mxPoint x="780" y="490" as="targetPoint" />
          </mxGeometry>
        </mxCell>
        <mxCell id="o3dH4B3-5PKVPGaBKZ95-14" value="" style="pointerEvents=1;verticalLabelPosition=bottom;shadow=0;dashed=0;align=center;html=1;verticalAlign=top;shape=mxgraph.electrical.signal_sources.signal_ground;strokeColor=#000000;strokeWidth=4;" vertex="1" parent="1">
          <mxGeometry x="792.5" y="540" width="45" height="30" as="geometry" />
        </mxCell>
        <mxCell id="o3dH4B3-5PKVPGaBKZ95-16" value="" style="edgeStyle=orthogonalEdgeStyle;rounded=0;orthogonalLoop=1;jettySize=auto;html=1;fillColor=#d80073;strokeColor=#A50040;strokeWidth=3;exitX=1;exitY=0.5;exitDx=0;exitDy=0;entryX=0.378;entryY=-0.02;entryDx=0;entryDy=0;entryPerimeter=0;" edge="1" parent="1" source="o3dH4B3-5PKVPGaBKZ95-5" target="o3dH4B3-5PKVPGaBKZ95-9">
          <mxGeometry relative="1" as="geometry">
            <mxPoint x="750" y="370" as="sourcePoint" />
            <mxPoint x="840" y="310" as="targetPoint" />
          </mxGeometry>
        </mxCell>
        <mxCell id="o3dH4B3-5PKVPGaBKZ95-17" value="4.2V&lt;div&gt;10A&lt;/div&gt;" style="edgeLabel;html=1;align=center;verticalAlign=middle;resizable=0;points=[];labelBackgroundColor=none;fontSize=15;fontColor=#000000;fontStyle=1" vertex="1" connectable="0" parent="o3dH4B3-5PKVPGaBKZ95-16">
          <mxGeometry x="0.0541" y="-1" relative="1" as="geometry">
            <mxPoint x="-18" y="-1" as="offset" />
          </mxGeometry>
        </mxCell>
        <mxCell id="o3dH4B3-5PKVPGaBKZ95-19" value="x6" style="edgeLabel;html=1;align=center;verticalAlign=middle;resizable=0;points=[];labelBackgroundColor=none;fontSize=25;fontColor=#000000;fontStyle=1" vertex="1" connectable="0" parent="1">
          <mxGeometry x="872" y="520" as="geometry">
            <mxPoint x="-1" y="-31" as="offset" />
          </mxGeometry>
        </mxCell>
        <mxCell id="o3dH4B3-5PKVPGaBKZ95-30" style="edgeStyle=orthogonalEdgeStyle;rounded=0;orthogonalLoop=1;jettySize=auto;html=1;exitX=0;exitY=0.5;exitDx=0;exitDy=0;strokeColor=#0000cc;strokeWidth=4;endArrow=none;endFill=0;startArrow=block;startFill=1;" edge="1" parent="1" source="o3dH4B3-5PKVPGaBKZ95-21">
          <mxGeometry relative="1" as="geometry">
            <mxPoint x="900" y="400" as="targetPoint" />
            <Array as="points">
              <mxPoint x="900" y="390" />
            </Array>
          </mxGeometry>
        </mxCell>
        <mxCell id="o3dH4B3-5PKVPGaBKZ95-21" value="TPS61088" style="rounded=1;whiteSpace=wrap;html=1;fillColor=#f0a30a;fontColor=#000000;strokeColor=#BD7000;fontStyle=1;fontSize=25;" vertex="1" parent="1">
          <mxGeometry x="930" y="370" width="160" height="39.49" as="geometry" />
        </mxCell>
        <mxCell id="o3dH4B3-5PKVPGaBKZ95-26" value="TPS61088" style="rounded=1;whiteSpace=wrap;html=1;fillColor=#f0a30a;fontColor=#000000;strokeColor=#BD7000;fontStyle=1;fontSize=25;" vertex="1" parent="1">
          <mxGeometry x="930" y="420" width="160" height="39.49" as="geometry" />
        </mxCell>
        <mxCell id="o3dH4B3-5PKVPGaBKZ95-27" value="TPS61088" style="rounded=1;whiteSpace=wrap;html=1;fillColor=#f0a30a;fontColor=#000000;strokeColor=#BD7000;fontStyle=1;fontSize=25;" vertex="1" parent="1">
          <mxGeometry x="930" y="470.51" width="160" height="39.49" as="geometry" />
        </mxCell>
        <mxCell id="o3dH4B3-5PKVPGaBKZ95-29" style="edgeStyle=orthogonalEdgeStyle;rounded=0;orthogonalLoop=1;jettySize=auto;html=1;exitX=0;exitY=0.5;exitDx=0;exitDy=0;entryX=0.75;entryY=0;entryDx=0;entryDy=0;strokeColor=#0000cc;strokeWidth=4;endArrow=none;endFill=0;startArrow=block;startFill=1;" edge="1" parent="1" source="o3dH4B3-5PKVPGaBKZ95-28" target="o3dH4B3-5PKVPGaBKZ95-9">
          <mxGeometry relative="1" as="geometry">
            <mxPoint x="910" y="430" as="targetPoint" />
            <Array as="points">
              <mxPoint x="900" y="540" />
              <mxPoint x="900" y="390" />
              <mxPoint x="838" y="390" />
            </Array>
          </mxGeometry>
        </mxCell>
        <mxCell id="o3dH4B3-5PKVPGaBKZ95-28" value="TPS61088" style="rounded=1;whiteSpace=wrap;html=1;fillColor=#f0a30a;fontColor=#000000;strokeColor=#BD7000;fontStyle=1;fontSize=25;" vertex="1" parent="1">
          <mxGeometry x="930" y="520" width="160" height="39.49" as="geometry" />
        </mxCell>
        <mxCell id="o3dH4B3-5PKVPGaBKZ95-32" style="edgeStyle=orthogonalEdgeStyle;rounded=0;orthogonalLoop=1;jettySize=auto;html=1;exitX=0;exitY=0.5;exitDx=0;exitDy=0;entryX=0.75;entryY=0;entryDx=0;entryDy=0;strokeColor=#0000cc;strokeWidth=4;endArrow=none;endFill=0;startArrow=block;startFill=1;" edge="1" parent="1" source="o3dH4B3-5PKVPGaBKZ95-28" target="o3dH4B3-5PKVPGaBKZ95-9">
          <mxGeometry relative="1" as="geometry">
            <mxPoint x="838" y="440" as="targetPoint" />
            <mxPoint x="930" y="540" as="sourcePoint" />
            <Array as="points">
              <mxPoint x="900" y="540" />
              <mxPoint x="900" y="390" />
              <mxPoint x="838" y="390" />
            </Array>
          </mxGeometry>
        </mxCell>
        <mxCell id="o3dH4B3-5PKVPGaBKZ95-33" style="edgeStyle=orthogonalEdgeStyle;rounded=0;orthogonalLoop=1;jettySize=auto;html=1;exitX=0;exitY=0.5;exitDx=0;exitDy=0;strokeColor=#0000cc;strokeWidth=4;endArrow=none;endFill=0;startArrow=block;startFill=1;" edge="1" parent="1">
          <mxGeometry relative="1" as="geometry">
            <mxPoint x="900" y="450" as="targetPoint" />
            <mxPoint x="930" y="440" as="sourcePoint" />
            <Array as="points">
              <mxPoint x="900" y="440" />
            </Array>
          </mxGeometry>
        </mxCell>
        <mxCell id="o3dH4B3-5PKVPGaBKZ95-34" style="edgeStyle=orthogonalEdgeStyle;rounded=0;orthogonalLoop=1;jettySize=auto;html=1;exitX=0;exitY=0.5;exitDx=0;exitDy=0;strokeColor=#0000cc;strokeWidth=4;endArrow=none;endFill=0;startArrow=block;startFill=1;" edge="1" parent="1">
          <mxGeometry relative="1" as="geometry">
            <mxPoint x="900" y="500" as="targetPoint" />
            <mxPoint x="930" y="490" as="sourcePoint" />
            <Array as="points">
              <mxPoint x="900" y="490" />
            </Array>
          </mxGeometry>
        </mxCell>
        <mxCell id="o3dH4B3-5PKVPGaBKZ95-35" value="4.2V&lt;div&gt;18A&lt;/div&gt;" style="edgeLabel;html=1;align=center;verticalAlign=middle;resizable=0;points=[];labelBackgroundColor=none;fontSize=15;fontColor=#000000;fontStyle=1" vertex="1" connectable="0" parent="1">
          <mxGeometry x="865" y="389.74" as="geometry" />
        </mxCell>
        <mxCell id="o3dH4B3-5PKVPGaBKZ95-37" style="edgeStyle=orthogonalEdgeStyle;rounded=0;orthogonalLoop=1;jettySize=auto;html=1;strokeColor=#0000cc;strokeWidth=4;endArrow=none;endFill=0;startArrow=block;startFill=1;entryX=1;entryY=0.5;entryDx=0;entryDy=0;" edge="1" parent="1" target="o3dH4B3-5PKVPGaBKZ95-21">
          <mxGeometry relative="1" as="geometry">
            <mxPoint x="1127" y="384" as="targetPoint" />
            <mxPoint x="1153" y="390" as="sourcePoint" />
            <Array as="points">
              <mxPoint x="1140" y="390" />
              <mxPoint x="1115" y="389" />
            </Array>
          </mxGeometry>
        </mxCell>
        <mxCell id="o3dH4B3-5PKVPGaBKZ95-38" value="6V&lt;div style=&quot;font-size: 15px;&quot;&gt;10A&lt;/div&gt;" style="edgeLabel;html=1;align=center;verticalAlign=middle;resizable=0;points=[];labelBackgroundColor=none;fontColor=#000000;fontSize=15;fontStyle=1" vertex="1" connectable="0" parent="o3dH4B3-5PKVPGaBKZ95-37">
          <mxGeometry x="-0.1221" relative="1" as="geometry">
            <mxPoint x="36" as="offset" />
          </mxGeometry>
        </mxCell>
        <mxCell id="o3dH4B3-5PKVPGaBKZ95-39" style="edgeStyle=orthogonalEdgeStyle;rounded=0;orthogonalLoop=1;jettySize=auto;html=1;strokeColor=#0000cc;strokeWidth=4;endArrow=none;endFill=0;startArrow=block;startFill=1;entryX=1;entryY=0.5;entryDx=0;entryDy=0;" edge="1" parent="1">
          <mxGeometry relative="1" as="geometry">
            <mxPoint x="1090" y="440.22" as="targetPoint" />
            <mxPoint x="1153" y="440.22" as="sourcePoint" />
            <Array as="points">
              <mxPoint x="1140" y="440.22" />
              <mxPoint x="1115" y="439.22" />
            </Array>
          </mxGeometry>
        </mxCell>
        <mxCell id="o3dH4B3-5PKVPGaBKZ95-40" value="6V&lt;div style=&quot;font-size: 15px;&quot;&gt;10A&lt;/div&gt;" style="edgeLabel;html=1;align=center;verticalAlign=middle;resizable=0;points=[];labelBackgroundColor=none;fontColor=#000000;fontSize=15;fontStyle=1" vertex="1" connectable="0" parent="o3dH4B3-5PKVPGaBKZ95-39">
          <mxGeometry x="-0.1221" relative="1" as="geometry">
            <mxPoint x="36" as="offset" />
          </mxGeometry>
        </mxCell>
        <mxCell id="o3dH4B3-5PKVPGaBKZ95-41" style="edgeStyle=orthogonalEdgeStyle;rounded=0;orthogonalLoop=1;jettySize=auto;html=1;strokeColor=#0000cc;strokeWidth=4;endArrow=none;endFill=0;startArrow=block;startFill=1;entryX=1;entryY=0.5;entryDx=0;entryDy=0;" edge="1" parent="1">
          <mxGeometry relative="1" as="geometry">
            <mxPoint x="1090" y="489.90000000000003" as="targetPoint" />
            <mxPoint x="1153" y="489.90000000000003" as="sourcePoint" />
            <Array as="points">
              <mxPoint x="1140" y="489.90000000000003" />
              <mxPoint x="1115" y="488.90000000000003" />
            </Array>
          </mxGeometry>
        </mxCell>
        <mxCell id="o3dH4B3-5PKVPGaBKZ95-42" value="6V&lt;div style=&quot;font-size: 15px;&quot;&gt;10A&lt;/div&gt;" style="edgeLabel;html=1;align=center;verticalAlign=middle;resizable=0;points=[];labelBackgroundColor=none;fontColor=#000000;fontSize=15;fontStyle=1" vertex="1" connectable="0" parent="o3dH4B3-5PKVPGaBKZ95-41">
          <mxGeometry x="-0.1221" relative="1" as="geometry">
            <mxPoint x="36" as="offset" />
          </mxGeometry>
        </mxCell>
        <mxCell id="o3dH4B3-5PKVPGaBKZ95-43" style="edgeStyle=orthogonalEdgeStyle;rounded=0;orthogonalLoop=1;jettySize=auto;html=1;strokeColor=#0000cc;strokeWidth=4;endArrow=none;endFill=0;startArrow=block;startFill=1;entryX=1;entryY=0.5;entryDx=0;entryDy=0;" edge="1" parent="1">
          <mxGeometry relative="1" as="geometry">
            <mxPoint x="1090" y="539.64" as="targetPoint" />
            <mxPoint x="1153" y="539.64" as="sourcePoint" />
            <Array as="points">
              <mxPoint x="1140" y="539.64" />
              <mxPoint x="1115" y="538.64" />
            </Array>
          </mxGeometry>
        </mxCell>
        <mxCell id="o3dH4B3-5PKVPGaBKZ95-44" value="6V&lt;div style=&quot;font-size: 15px;&quot;&gt;10A&lt;/div&gt;" style="edgeLabel;html=1;align=center;verticalAlign=middle;resizable=0;points=[];labelBackgroundColor=none;fontColor=#000000;fontSize=15;fontStyle=1" vertex="1" connectable="0" parent="o3dH4B3-5PKVPGaBKZ95-43">
          <mxGeometry x="-0.1221" relative="1" as="geometry">
            <mxPoint x="36" as="offset" />
          </mxGeometry>
        </mxCell>
      </root>
    </mxGraphModel>
  </diagram>
</mxfile>
